{
  "asset": {
    "generator": "Khronos glTF Blender I/O v3.2.43",
    "version": "2.0"
  },
  "scene": 0,
  "scenes": [
    {
      "name": "Scene",
      "nodes": [
        0
      ]
    }
  ],
  "nodes": [
    {
      "mesh": 0,
      "name": "sphere_gltf"
    }
  ],
  "materials": [
    {
      "doubleSided": true,
      "name": "cracked_concrete_wall",
      "normalTexture": {
        "index": 0
      },
      "pbrMetallicRoughness": {
        "baseColorTexture": {
          "index": 1
        },
        "metallicFactor": 0,
        "metallicRoughnessTexture": {
          "index": 2
        }
      }
    }
  ],
  "meshes": [
    {
      "name": "Sphere.001",
      "primitives": [
        {
          "attributes": {
            "POSITION": 0,
            "NORMAL": 1,
            "TEXCOORD_0": 2
          },
          "indices": 3,
          "material": 0
        }
      ]
    }
  ],
  "textures": [
    {
      "sampler": 0,
      "source": 0
    },
    {
      "sampler": 0,
      "source": 1
    },
    {
      "sampler": 0,
      "source": 2
    }
  ],
  "images": [
    {
      "mimeType": "image/jpeg",
      "name": "cracked_concrete_wall_nor_gl_8k",
      "uri": "textures/cracked_concrete_wall_nor_gl_4k.jpg"
    },
    {
      "mimeType": "image/jpeg",
      "name": "cracked_concrete_wall_diff_8k",
      "uri": "textures/cracked_concrete_wall_diff_4k.jpg"
    },
    {
      "mimeType": "image/jpeg",
      "name": "cracked_concrete_wall_rough_8k",
      "uri": "textures/cracked_concrete_wall_rough_4k.jpg"
    }
  ],
  "accessors": [
    {
      "bufferView": 0,
      "componentType": 5126,
      "count": 53909,
      "max": [
        0.503820538520813,
        0.5101680159568787,
        0.5031723976135254
      ],
      "min": [
        -0.5038207173347473,
        -0.5098550319671631,
        -0.5031737089157104
      ],
      "type": "VEC3"
    },
    {
      "bufferView": 1,
      "componentType": 5126,
      "count": 53909,
      "type": "VEC3"
    },
    {
      "bufferView": 2,
      "componentType": 5126,
      "count": 53909,
      "type": "VEC2"
    },
    {
      "bufferView": 3,
      "componentType": 5123,
      "count": 322170,
      "type": "SCALAR"
    }
  ],
  "bufferViews": [
    {
      "buffer": 0,
      "byteLength": 646908,
      "byteOffset": 0
    },
    {
      "buffer": 0,
      "byteLength": 646908,
      "byteOffset": 646908
    },
    {
      "buffer": 0,
      "byteLength": 431272,
      "byteOffset": 1293816
    },
    {
      "buffer": 0,
      "byteLength": 644340,
      "byteOffset": 1725088
    }
  ],
  "samplers": [
    {
      "magFilter": 9729,
      "minFilter": 9987
    }
  ],
  "buffers": [
    {
      "byteLength": 2369428,
      "uri": "cracked_concrete_wall.bin"
    }
  ]
}